<svg width="132" height="28" viewBox="0 0 132 28" fill="none" xmlns="http://www.w3.org/2000/svg">
<path d="M122.439 2.77979V21.4836H132V25.3554H117.912V2.77979H122.439Z" fill="#FF7E36"/>
<path d="M107.018 2.77979L115.149 25.3554H110.324L108.298 19.6966H100.108L98.0231 25.3554H93.1982L101.538 2.77979H107.018ZM101.538 15.8248H106.899L104.278 8.4088L101.538 15.8248Z" fill="#FF7E36"/>
<path d="M90.7036 2.77979V6.65159H79.8327V11.8041H89.1251V15.6759H79.8327V21.4836H90.7036V25.3554H75.3057V2.77979H90.7036Z" fill="#FF7E36"/>
<path d="M57.1984 20.1136L51.1822 10.3447V25.3554H46.6552V2.77979H51.7779L58.9854 14.3059L66.193 2.77979H71.3157V25.3554H66.7887V10.3447L60.7724 20.1136H57.1984Z" fill="#FF7E36"/>
<path d="M29.507 11.5956H43.0881V16.1226H29.507V11.5956Z" fill="#FF7E36"/>
<path d="M12.9648 25.9307C5.80463 25.9304 0.000240833 20.126 1.13343e-06 12.9658C1.75941e-06 5.80544 5.80448 0.000244288 12.9648 -1.1335e-06C20.1254 -5.07508e-07 25.9307 5.80529 25.9307 12.9658C25.9304 20.1261 20.1253 25.9307 12.9648 25.9307ZM22.5117 12.8789C22.4884 7.64985 18.2424 3.41797 13.0078 3.41797C7.7736 3.41838 3.52818 7.6501 3.50488 12.8789L22.5117 12.8789Z" fill="#FF7E36"/>
<path d="M8.62195 24.2711H17.3347C17.3347 26.2188 15.7558 27.7977 13.8081 27.7977H12.1485C10.2008 27.7977 8.62195 26.2188 8.62195 24.2711Z" fill="#FF7E36"/>
</svg>
