<svg viewBox="0 0 262 280" fill="currentColor" xmlns="http://www.w3.org/2000/svg">
<path d="M130.598 261.194C58.471 261.194 0.0001577 202.724 1.14171e-05 130.598C1.77226e-05 58.4709 58.471 -1.77226e-05 130.598 -1.14171e-05C202.724 0.000147476 261.194 58.471 261.194 130.598C261.194 202.724 202.724 261.194 130.598 261.194ZM226.762 129.727C226.527 77.055 183.759 34.4287 131.032 34.4287C78.3057 34.4288 35.5371 77.055 35.3027 129.727L226.762 129.727Z" fill="currentColor"/>
<path d="M86.8473 244.478H174.608V268C174.608 274.628 169.236 280 162.608 280H98.8473C92.2199 280 86.8473 274.628 86.8473 268V244.478Z" fill="currentColor"/>
</svg>
