<svg viewBox="0 0 24 24" fill="none" xmlns="http://www.w3.org/2000/svg">
<path d="M10.2274 3.68725C10.3176 3.59178 10.3881 3.47947 10.4349 3.35674C10.4817 3.23401 10.5039 3.10327 10.5002 2.97196C10.4965 2.84066 10.467 2.71138 10.4133 2.59149C10.3596 2.47161 10.2828 2.36347 10.1874 2.27325C10.0919 2.18303 9.97959 2.1125 9.85686 2.06569C9.73413 2.01887 9.60338 1.99669 9.47208 2.0004C9.34078 2.00411 9.21149 2.03365 9.09161 2.08733C8.97172 2.14101 8.86358 2.21778 8.77337 2.31325L0.273365 11.3132C0.0978292 11.4989 2.28882e-05 11.7447 2.28882e-05 12.0002C2.28882e-05 12.2558 0.0978292 12.5016 0.273365 12.6872L8.77337 21.6882C8.86299 21.7858 8.9711 21.8646 9.09143 21.92C9.21176 21.9754 9.3419 22.0064 9.47429 22.0111C9.60669 22.0158 9.7387 21.9942 9.86265 21.9474C9.98661 21.9007 10.1 21.8298 10.1964 21.7388C10.2927 21.6479 10.37 21.5387 10.4237 21.4176C10.4775 21.2965 10.5067 21.166 10.5096 21.0335C10.5124 20.9011 10.489 20.7694 10.4405 20.6461C10.3921 20.5228 10.3196 20.4103 10.2274 20.3153L2.37537 12.0002L10.2274 3.68725Z" fill="currentColor"/>
</svg>
