<svg viewBox="0 0 24 24" fill="currentColor" xmlns="http://www.w3.org/2000/svg">
<path d="M4.67177 20H19.3286C21.098 20 22 19.1273 22 17.399V8.61464C22 6.88634 21.098 6.02219 19.3286 6.02219H17.3381C16.6746 6.02219 16.4706 5.88795 16.0877 5.46841L15.3984 4.71308C14.9817 4.25201 14.548 4 13.6631 4H10.2774C9.40118 4 8.96708 4.25201 8.54205 4.71308L7.85278 5.46841C7.47857 5.87936 7.26587 6.02219 6.60237 6.02219H4.67141C2.90196 6.02219 2 6.88634 2 8.61464V17.399C2 19.1273 2.90233 20 4.67177 20ZM4.69682 18.649C3.85474 18.649 3.36982 18.2044 3.36982 17.3317V8.69017C3.36982 7.81743 3.85474 7.37283 4.69682 7.37283H6.94247C7.70832 7.37283 8.11666 7.23036 8.54205 6.76069L9.21389 6.02219C9.69881 5.48523 9.94563 5.35099 10.7028 5.35099H13.2377C13.9948 5.35099 14.2417 5.48523 14.7266 6.02219L15.3984 6.76034C15.8238 7.23036 16.2322 7.37283 16.998 7.37283H19.3032C20.1453 7.37283 20.6305 7.81743 20.6305 8.69017V17.3317C20.6305 18.2044 20.1456 18.649 19.3032 18.649H4.69682ZM11.996 17.3152C12.6072 17.3169 13.2126 17.1993 13.7774 16.9692C14.3423 16.739 14.8554 16.4009 15.2871 15.9743C15.7188 15.5477 16.0607 15.0411 16.293 14.4836C16.5253 13.926 16.6434 13.3287 16.6405 12.726C16.6405 10.175 14.5818 8.13675 11.9956 8.13675C9.42659 8.13675 7.35952 10.175 7.35952 12.726C7.35952 15.2762 9.42695 17.3152 11.996 17.3152ZM18.1119 10.6784C18.6905 10.6784 19.1667 10.2173 19.1667 9.64668C19.1667 9.37078 19.0556 9.10618 18.8578 8.9111C18.66 8.71601 18.3917 8.60641 18.1119 8.60641C17.8322 8.60641 17.5639 8.71601 17.3661 8.9111C17.1683 9.10618 17.0572 9.37078 17.0572 9.64668C17.0572 10.2173 17.5334 10.6784 18.1119 10.6784ZM11.996 16.0401C10.15 16.0401 8.64441 14.5635 8.64441 12.726C8.64441 10.8885 10.1416 9.41221 11.996 9.41221C12.4374 9.41169 12.8746 9.49705 13.2825 9.66339C13.6904 9.82973 14.061 10.0738 14.3732 10.3816C14.6853 10.6894 14.9328 11.0549 15.1015 11.4572C15.2702 11.8595 15.3568 12.2906 15.3563 12.726C15.3568 13.1613 15.2703 13.5925 15.1016 13.9948C14.9329 14.3972 14.6854 14.7627 14.3733 15.0706C14.0611 15.3784 13.6905 15.6225 13.2826 15.7889C12.8746 15.9552 12.4374 16.0406 11.996 16.0401Z" fill="currentColor"/>
</svg>
