<svg viewBox="0 0 24 24" fill="none" xmlns="http://www.w3.org/2000/svg">
<path d="M19.071 13.1418L13.414 18.7998C13.0389 19.1747 12.5303 19.3854 12 19.3854C11.4697 19.3854 10.961 19.1747 10.586 18.7998L4.92899 13.1428C4.46136 12.6792 4.08989 12.1279 3.83592 11.5204C3.58194 10.9129 3.45046 10.2612 3.44902 9.60275C3.44758 8.9443 3.5762 8.29204 3.82752 7.68344C4.07883 7.07483 4.44788 6.52186 4.91347 6.05626C5.37907 5.59067 5.93204 5.22162 6.54065 4.97031C7.14925 4.71899 7.8015 4.59037 8.45995 4.59181C9.1184 4.59325 9.77009 4.72473 10.3776 4.97871C10.9851 5.23268 11.5364 5.60415 12 6.07178C12.9416 5.15365 14.2069 4.64345 15.522 4.65169C16.8371 4.65993 18.096 5.18595 19.026 6.1158C19.956 7.04566 20.4822 8.30447 20.4906 9.61955C20.499 10.9346 19.989 12.2001 19.071 13.1418Z" stroke="currentColor" stroke-width="1.5" stroke-linecap="round" stroke-linejoin="round"/>
</svg>
