<svg viewBox="0 0 24 24" fill="none" xmlns="http://www.w3.org/2000/svg">
<path d="M19.7748 20.6875L14.9656 15.8793C16.3595 14.2058 17.0546 12.0594 16.9062 9.88649C16.7579 7.7136 15.7775 5.68155 14.1691 4.21306C12.5607 2.74457 10.448 1.9527 8.27066 2.00219C6.09327 2.05167 4.01878 2.9387 2.47874 4.47874C0.938698 6.01878 0.0516718 8.09327 0.00218707 10.2707C-0.0472976 12.448 0.744569 14.5607 2.21306 16.1691C3.68155 17.7775 5.7136 18.7579 7.88649 18.9062C10.0594 19.0546 12.2058 18.3595 13.8793 16.9656L18.6875 21.7748C18.7589 21.8462 18.8437 21.9028 18.937 21.9415C19.0302 21.9801 19.1302 22 19.2312 22C19.3321 22 19.4321 21.9801 19.5254 21.9415C19.6187 21.9028 19.7034 21.8462 19.7748 21.7748C19.8462 21.7034 19.9028 21.6187 19.9415 21.5254C19.9801 21.4321 20 21.3321 20 21.2312C20 21.1302 19.9801 21.0302 19.9415 20.937C19.9028 20.8437 19.8462 20.7589 19.7748 20.6875ZM1.55803 10.4736C1.55803 9.10583 1.96362 7.76878 2.72351 6.63151C3.4834 5.49425 4.56347 4.60787 5.82713 4.08444C7.09078 3.56102 8.48128 3.42407 9.82277 3.69091C11.1643 3.95775 12.3965 4.61639 13.3637 5.58355C14.3308 6.55071 14.9895 7.78295 15.2563 9.12444C15.5231 10.4659 15.3862 11.8564 14.8628 13.1201C14.3393 14.3837 13.453 15.4638 12.3157 16.2237C11.1784 16.9836 9.84138 17.3892 8.47361 17.3892C6.6401 17.3872 4.88228 16.6579 3.5858 15.3614C2.28932 14.0649 1.56006 12.3071 1.55803 10.4736Z" fill="currentColor"/>
</svg>
