<svg width="24" height="24" viewBox="0 0 24 24" fill="none" xmlns="http://www.w3.org/2000/svg">
<path d="M9.41399 3.396C9.44008 3.08351 9.58267 2.79224 9.81347 2.57997C10.0443 2.36769 10.3464 2.24992 10.66 2.25H13.34C13.99 2.25 14.532 2.748 14.586 3.396L14.679 4.513C15.589 4.838 16.422 5.325 17.143 5.937L18.158 5.459C18.4417 5.32519 18.7654 5.30294 19.0647 5.39668C19.3641 5.49041 19.6173 5.69327 19.774 5.965L21.114 8.285C21.2708 8.55658 21.3198 8.87717 21.2512 9.18317C21.1827 9.48918 21.0016 9.75824 20.744 9.937L19.823 10.577C19.9931 11.518 19.9931 12.482 19.823 13.423L20.744 14.063C21.0016 14.2418 21.1827 14.5108 21.2512 14.8168C21.3198 15.1228 21.2708 15.4434 21.114 15.715L19.774 18.035C19.6173 18.3067 19.3641 18.5096 19.0647 18.6033C18.7654 18.6971 18.4417 18.6748 18.158 18.541L17.143 18.063C16.4134 18.6811 15.5788 19.1634 14.679 19.487L14.586 20.604C14.5599 20.9165 14.4173 21.2078 14.1865 21.42C13.9557 21.6323 13.6536 21.7501 13.34 21.75H10.66C10.3464 21.7501 10.0443 21.6323 9.81347 21.42C9.58267 21.2078 9.44008 20.9165 9.41399 20.604L9.32099 19.487C8.42115 19.1634 7.58662 18.6811 6.85699 18.063L5.84199 18.541C5.55828 18.6748 5.23462 18.6971 4.93526 18.6033C4.6359 18.5096 4.38273 18.3067 4.22599 18.035L2.88599 15.715C2.72921 15.4434 2.68022 15.1228 2.74876 14.8168C2.8173 14.5108 2.99834 14.2418 3.25599 14.063L4.17699 13.423C4.00689 12.482 4.00689 11.518 4.17699 10.577L3.25699 9.937C2.99934 9.75824 2.8183 9.48918 2.74976 9.18317C2.68122 8.87717 2.73021 8.55658 2.88699 8.285L4.22699 5.965C4.38371 5.69352 4.63671 5.49083 4.93584 5.39711C5.23496 5.30339 5.55839 5.32548 5.84199 5.459L6.85699 5.937C7.58662 5.31889 8.42115 4.83659 9.32099 4.513L9.41399 3.396ZM10.89 3.75L10.732 5.653L10.232 5.795C9.20936 6.08672 8.27488 6.62713 7.51199 7.368L7.13899 7.728L5.40999 6.914L4.29999 8.836L5.86999 9.925L5.74399 10.428C5.48672 11.4602 5.48672 12.5398 5.74399 13.572L5.86999 14.075L4.29999 15.164L5.40999 17.086L7.13999 16.271L7.51199 16.632C8.27488 17.3729 9.20936 17.9133 10.232 18.205L10.732 18.347L10.89 20.25H13.11L13.269 18.347L13.768 18.205C14.7906 17.9133 15.7251 17.3729 16.488 16.632L16.861 16.272L18.59 17.086L19.7 15.164L18.131 14.075L18.257 13.572C18.5161 12.5397 18.5161 11.4593 18.257 10.427L18.131 9.925L19.7 8.836L18.59 6.914L16.86 7.729L16.488 7.368C15.7251 6.62713 14.7906 6.08672 13.768 5.795L13.268 5.653L13.11 3.75H10.89ZM13.949 10.875C13.8013 10.6191 13.6046 10.3947 13.3701 10.2148C13.1357 10.0349 12.8681 9.90287 12.5826 9.82635C12.2972 9.74984 11.9995 9.7303 11.7065 9.76884C11.4135 9.80738 11.1309 9.90326 10.875 10.051C10.619 10.1987 10.3947 10.3954 10.2148 10.6299C10.0349 10.8643 9.90286 11.1319 9.82635 11.4173C9.74983 11.7028 9.73029 12.0005 9.76883 12.2935C9.80738 12.5865 9.90326 12.8691 10.051 13.125C10.3494 13.6419 10.8409 14.0191 11.4173 14.1736C11.9938 14.3282 12.6081 14.2474 13.125 13.949C13.6419 13.6506 14.0191 13.1591 14.1736 12.5827C14.3282 12.0062 14.2474 11.3919 13.949 10.875ZM10.125 8.752C10.9864 8.25472 12.0101 8.12 12.9709 8.37749C13.9316 8.63498 14.7507 9.26358 15.248 10.125C15.7453 10.9864 15.88 12.0101 15.6225 12.9709C15.365 13.9316 14.7364 14.7507 13.875 15.248C13.0136 15.7453 11.9899 15.88 11.0291 15.6225C10.0684 15.365 9.24927 14.7364 8.75199 13.875C8.25471 13.0136 8.12 11.9899 8.37749 11.0291C8.63497 10.0684 9.26357 9.24928 10.125 8.752Z" fill="#2C2520"/>
</svg>
