<svg viewBox="0 0 24 24" fill="currentColor" xmlns="http://www.w3.org/2000/svg">
<path d="M12.0047 12.0083C14.1844 12.0083 15.9611 10.1771 15.9611 7.94812C15.9611 5.73649 14.2027 4 12.0047 4C9.83404 4 8.04827 5.77114 8.04827 7.96544C8.05726 10.1855 9.83404 12.0083 12.0047 12.0083ZM12.0047 10.7038C10.6675 10.7038 9.52261 9.49478 9.52261 7.96508C9.52261 6.46228 10.6492 5.30449 12.0047 5.30449C13.3782 5.30449 14.4864 6.44495 14.4864 7.94812C14.4864 9.47709 13.3599 10.7038 12.0047 10.7038ZM5.81353 20H18.1959C19.7159 20 20 19.2212 20 18.2609C20 15.9721 16.9775 13.0798 12.0047 13.0798C7.03152 13.0798 4 15.9729 4 18.2609C4 19.2215 4.2841 20 5.81353 20ZM5.81353 18.6948C5.57516 18.6948 5.3913 18.4422 5.3913 18.2609C5.3913 16.844 7.80092 14.3836 12.0043 14.3836C16.2085 14.3836 18.6087 16.844 18.6087 18.2609C18.6087 18.4422 18.4339 18.6948 18.1959 18.6948H5.81353Z" fill="currentColor"/>
</svg>
