<svg viewBox="0 0 24 24" fill="none" xmlns="http://www.w3.org/2000/svg">
<path d="M12.0059 12.0104C14.7304 12.0104 16.9514 9.72134 16.9514 6.93515C16.9514 4.17062 14.7534 2 12.0059 2C9.29255 2 7.06034 4.21393 7.06034 6.95681C7.07158 9.73193 9.29255 12.0104 12.0059 12.0104ZM12.0059 10.3798C10.3344 10.3798 8.90326 8.86848 8.90326 6.95634C8.90326 5.07785 10.3115 3.63061 12.0059 3.63061C13.7228 3.63061 15.108 5.05619 15.108 6.93515C15.108 8.84636 13.6998 10.3798 12.0059 10.3798ZM4.26691 22H19.7449C21.6449 22 22 21.0264 22 19.8261C22 16.9652 18.2219 13.3498 12.0059 13.3498C5.7894 13.3498 2 16.9661 2 19.8261C2 21.0269 2.35512 22 4.26691 22ZM4.26691 20.3685C3.96895 20.3685 3.73913 20.0528 3.73913 19.8261C3.73913 18.0549 6.75115 14.9795 12.0054 14.9795C17.2606 14.9795 20.2609 18.0549 20.2609 19.8261C20.2609 20.0528 20.0423 20.3685 19.7449 20.3685H4.26691Z" fill="currentColor"/>
</svg>
